<?xml version="1.0" encoding="UTF-8" standalone="no"?>
<!-- Created with Inkscape (http://www.inkscape.org/) -->

<svg
   xmlns:dc="http://purl.org/dc/elements/1.1/"
   xmlns:cc="http://creativecommons.org/ns#"
   xmlns:rdf="http://www.w3.org/1999/02/22-rdf-syntax-ns#"
   xmlns:svg="http://www.w3.org/2000/svg"
   xmlns="http://www.w3.org/2000/svg"
   xmlns:sodipodi="http://sodipodi.sourceforge.net/DTD/sodipodi-0.dtd"
   xmlns:inkscape="http://www.inkscape.org/namespaces/inkscape"
   width="640"
   height="300"
   id="svg2995"
   version="1.1"
   inkscape:version="0.48.4 r9939"
   sodipodi:docname="pomodori.svg">
  <defs
     id="defs2997" />
  <sodipodi:namedview
     id="base"
     pagecolor="#ffffff"
     bordercolor="#666666"
     borderopacity="1.0"
     inkscape:pageopacity="0.0"
     inkscape:pageshadow="2"
     inkscape:zoom="0.98994949"
     inkscape:cx="329.58138"
     inkscape:cy="174.92953"
     inkscape:document-units="px"
     inkscape:current-layer="layer1"
     showgrid="false"
     inkscape:window-width="678"
     inkscape:window-height="597"
     inkscape:window-x="259"
     inkscape:window-y="83"
     inkscape:window-maximized="0" />
  <metadata
     id="metadata3000">
    <rdf:RDF>
      <cc:Work
         rdf:about="">
        <dc:format>image/svg+xml</dc:format>
        <dc:type
           rdf:resource="http://purl.org/dc/dcmitype/StillImage" />
        <dc:title></dc:title>
      </cc:Work>
    </rdf:RDF>
  </metadata>
  <g
     inkscape:label="Layer 1"
     inkscape:groupmode="layer"
     id="layer1"
     transform="translate(0,-752.36218)">
    <path
       sodipodi:type="arc"
       style="fill:#ff554c;fill-opacity:1;stroke:#ff554c;stroke-opacity:0.95767194;opacity:0.80000000000000004"
       id="path3003"
       sodipodi:cx="202.85715"
       sodipodi:cy="40"
       sodipodi:rx="157.14285"
       sodipodi:ry="157.14285"
       d="M 360,40 A 157.14285,157.14285 0 1 1 45.714294,40 157.14285,157.14285 0 1 1 360,40 z"
       transform="matrix(0.79160127,0,0,0.77341945,149.41803,874.28255)" />
    <path
       style="fill:#469862;fill-opacity:1;stroke:#469862;stroke-opacity:0.95767194"
       id="path3789"
       d="m 273.542,32.297392 c 1.77207,3.221782 4.64386,5.633547 7.36842,8.025137 3.96825,4.191937 8.43668,7.776707 13.09945,11.153691 5.65402,3.688227 11.63898,6.913934 17.68013,9.921902 7.45617,3.255243 15.23574,5.846727 23.05683,8.087583 6.06954,1.966927 12.32112,3.208343 18.52694,4.632331 3.77805,0.913029 7.63207,1.350248 11.50726,1.519218 1.46761,0.274502 2.83555,0.724471 4.34088,0.51693 0.54199,-0.07472 1.97896,-0.914891 1.52242,-0.613385 -5.85849,3.869051 -11.70603,7.754657 -17.55905,11.631985 -2.32488,-1.062111 -4.69652,-2.063394 -7.11328,-2.921767 -3.72526,-1.334927 -7.42506,-2.674422 -10.97267,-4.438416 -3.84725,-1.394287 -7.38658,-3.465787 -11.08373,-5.189365 -3.04487,-1.514862 -6.0192,-3.150379 -8.8695,-5.009165 -2.1462,-1.296856 -4.19613,-2.819324 -5.9552,-4.611338 -1.83805,-1.33423 -2.6717,-3.45881 -3.62262,-5.438377 -0.96253,-3.345407 -1.49638,-6.788618 -2.30415,-10.170359 -0.78013,-4.341889 -1.44844,-8.700855 -2.22251,-13.043656 -0.2767,-3.797774 -0.81559,-7.539964 -1.55096,-11.271672 -0.41123,-1.996341 -0.62561,-4.021521 -0.79559,-6.049788 0,0 17.38529,-9.003293 17.38529,-9.003293 l 0,0 c 0.0965,2.007223 0.2189,4.013961 0.47962,6.007925 0.49381,3.863012 0.77817,7.709796 1.03297,11.593305 0.43473,4.322084 1.43401,8.532595 2.293,12.781599 0.81476,3.155485 1.7343,6.290287 3.14248,9.238866 0.88996,1.801958 1.65378,3.620251 3.29779,4.883248 1.61984,1.670369 3.36704,3.235277 5.24908,4.603808 2.63914,1.950414 5.60646,3.3621 8.44966,4.984394 3.44641,1.959528 6.87877,3.975844 10.62087,5.333558 3.71512,1.361467 7.35242,2.930262 11.14025,4.083541 2.90834,0.775455 5.84039,1.480977 8.7127,2.376578 -21.57267,16.002807 -9.52513,12.656865 -21.4656,11.041888 -3.62886,-0.441448 -7.1541,-1.332978 -10.60039,-2.559353 -5.81375,-1.755776 -11.64253,-3.471065 -17.35687,-5.5416 -7.62626,-2.710362 -15.31395,-5.291181 -22.74352,-8.51326 -2.57628,-1.022464 -5.20086,-1.93074 -7.72886,-3.067358 -3.96555,-1.782962 -7.67496,-4.155213 -11.42445,-6.333937 -4.70701,-3.518783 -9.12221,-7.419642 -13.93711,-10.788495 -2.9431,-2.474697 -5.89701,-4.99882 -9.08726,-7.136682 0,0 17.48728,-10.716221 17.48728,-10.716221 z"
       inkscape:connector-curvature="0"
       transform="translate(0,752.36218)" />
    <path
       style="fill:#469862;fill-opacity:1;stroke:#469862;stroke-opacity:0.95767194"
       id="path3806"
       d="m 370.07596,13.628912 c 2.28702,1.593473 2.8039,4.689159 3.26963,7.259905 0.32031,2.707871 -0.12513,5.587598 -0.85244,8.215601 -0.60481,2.204397 -1.57625,4.266238 -2.51903,6.33944 -1.01375,1.915279 -1.90421,3.890734 -2.928,5.800119 -1.15492,2.056133 -2.55239,3.985139 -4.17088,5.700122 -1.3886,1.529021 -2.78721,3.071373 -4.32137,4.458099 -1.42949,1.422381 -2.79185,2.922346 -4.2905,4.274115 -1.48677,1.54549 -2.9185,3.14131 -4.68605,4.37375 -8.01957,6.214042 -16.41646,13.288865 -26.51008,15.285258 -0.44626,0.06082 -0.89253,0.121641 -1.33879,0.182461 0,0 19.27392,-14.57126 19.27392,-14.57126 l 0,0 c 0.36818,-0.09596 0.73635,-0.191921 1.10453,-0.287882 7.9919,-3.278097 0.45247,-0.238623 -18.46708,10.853856 -0.31539,0.184909 0.68656,-0.259389 1.00542,-0.438242 1.42408,-0.798798 0.38329,-0.396573 1.65466,-1.448888 0.29585,-0.244873 0.64852,-0.411564 0.97277,-0.617346 1.15112,-1.060033 2.63804,-1.653286 3.75061,-2.76542 0.24893,-0.248831 0.39813,-0.585591 0.6471,-0.834383 0.23142,-0.231255 0.52116,-0.395634 0.78174,-0.593451 1.2349,-1.591356 2.85012,-2.881229 4.28757,-4.274586 1.23993,-1.592285 2.86304,-2.862522 4.26373,-4.304511 1.28605,-1.744429 2.91551,-3.208486 4.0305,-5.099801 1.06464,-2.014185 2.4926,-3.804286 3.27079,-5.96949 1.15604,-1.759015 1.79746,-3.862245 2.53502,-5.820756 0.75261,-2.199277 1.00542,-4.601242 0.68972,-6.904472 -0.35729,-2.649249 -1.09563,-5.235726 -1.26365,-7.901915 0,0 19.81016,-10.910323 19.81016,-10.910323 z"
       inkscape:connector-curvature="0"
       transform="translate(0,752.36218)" />
    <path
       style="opacity:0.80000000000000004;fill:#ffffff;fill-opacity:0.54385967999999996;stroke:#ffffff;stroke-width:0.51730692000000000;stroke-opacity:0.30158731"
       d="m 218.22103,904.43326 c 18.36835,76.78112 159.88183,104.64964 119.11616,104.64964 -40.76567,0 -137.40522,-43.04134 -137.40522,-92.48576 0,-49.44443 11.2719,-94.30298 52.03757,-94.30298 40.76567,0 -50.77394,10.97147 -33.74851,82.1391 z"
       id="path3812"
       inkscape:connector-curvature="0"
       sodipodi:nodetypes="sssss" />
  </g>
</svg>
